<?xml version="1.0" encoding="utf-8"?>
<!-- Generator: Adobe Illustrator 15.0.0, SVG Export Plug-In . SVG Version: 6.00 Build 0)  -->
<!DOCTYPE svg PUBLIC "-//W3C//DTD SVG 1.1//EN" "http://www.w3.org/Graphics/SVG/1.1/DTD/svg11.dtd">
<svg version="1.1" id="Layer_1" xmlns="http://www.w3.org/2000/svg" xmlns:xlink="http://www.w3.org/1999/xlink" x="0px" y="0px"
	 width="1000px" height="140px" viewBox="0 0 1000 140" enable-background="new 0 0 1000 140" xml:space="preserve">
<g>
	<g>
		<path fill="#FFFFFF" d="M64.842,31.798l-5.864,9.705c12.203,2.796,21.383,14.445,21.383,28.35c0,3.455-0.567,6.771-1.607,9.848
			l4.785,10.256l10.941-0.366c2.562-6.128,3.908-12.82,3.908-19.737c0-12.907-4.688-25.04-13.2-34.165
			c-7.155-7.67-16.291-12.443-26.17-13.77L64.842,31.798z"/>
		<path fill="#FFFFFF" d="M16.836,78.282l10.774,0.561c-0.864-2.833-1.333-5.854-1.333-8.99c0-14.157,9.515-25.974,22.049-28.493
			l5.815-9.626l-5.835-9.9c-10.143,1.195-19.537,6.008-26.856,13.855C12.937,44.813,8.249,56.945,8.249,69.853
			c0,6.569,1.217,12.937,3.533,18.811L16.836,78.282z"/>
		<path fill="#FFFFFF" d="M78.057,99.808l-4.832-10.355c-4.946,5.768-12.039,9.388-19.906,9.388
			c-8.164,0-15.495-3.897-20.457-10.048l-10.704-0.559L17.1,98.621c1.313,1.894,2.765,3.696,4.35,5.395
			c8.513,9.127,19.831,14.151,31.87,14.151c12.039,0,23.357-5.024,31.87-14.151c1.353-1.451,2.609-2.979,3.767-4.573L78.057,99.808z
			"/>
	</g>
	<g>
		<path fill="#FFFFFF" d="M132.032,79.183c0.585,9.93,7.508,15.68,16.576,15.68c6.533,0,15.895-2.092,15.895-11.395
			c0-9.095-8.581-10.453-17.162-12.335c-8.679-1.882-17.259-4.285-17.259-15.261c0-10.662,9.654-13.798,18.136-13.798
			c10.629,0,18.528,4.913,18.528,17.143h-3.706c-0.098-9.721-6.436-13.692-14.822-13.692c-6.825,0-14.431,2.717-14.431,10.348
			c0,8.571,8.582,9.931,16.674,11.812c9.945,1.986,17.747,4.495,17.747,15.784c0,11.603-10.824,14.844-19.599,14.844
			c-11.408,0-19.989-6.585-20.281-19.129H132.032z"/>
		<path fill="#FFFFFF" d="M174.444,70.716c-0.195,12.646,6.046,24.146,18.429,24.146c9.458,0,16.187-6.063,17.942-15.993h3.705
			c-1.95,12.543-9.75,19.442-21.647,19.442c-14.625,0-22.33-12.335-22.134-27.179c-0.196-14.738,7.02-29.059,22.134-29.059
			c15.699,0,22.719,13.275,22.037,28.642H174.444z M211.205,67.266c-0.195-11.289-6.826-21.741-18.332-21.741
			c-11.117,0-17.649,11.079-18.429,21.741H211.205z"/>
		<path fill="#FFFFFF" d="M256.349,97.057h-3.706V86.395h-0.195c-2.341,6.376-9.069,11.917-18.625,11.917
			c-9.459,0-16.771-3.868-16.771-15.157c0-12.544,10.141-15.157,18.429-15.889c16.577-1.254,17.259-2.404,17.259-11.185
			c0-2.403-2.535-10.556-13.944-10.556c-8.97,0-14.918,5.017-15.407,14.32h-3.705c0.487-11.812,7.312-17.771,19.111-17.771
			c8.776,0,17.553,2.927,17.553,14.006V97.057z M252.643,66.534c-2.925,3.555-10.921,3.136-18.136,4.182
			c-8.776,1.045-13.75,4.391-13.75,12.438c0,6.48,4.389,11.708,13.165,11.708c16.869,0,18.722-15.471,18.722-18.293V66.534z"/>
		<path fill="#FFFFFF" d="M267.657,55.245h0.292c1.948-7.003,10.139-12.648,19.208-12.23v3.973
			c-3.901-0.522-9.36,0.522-13.846,5.227c-3.705,4.077-5.265,7.422-5.655,15.47v29.373h-3.707V43.329h3.707V55.245z"/>
		<path fill="#FFFFFF" d="M289.398,79.183c0.585,9.93,7.509,15.68,16.578,15.68c6.534,0,15.893-2.092,15.893-11.395
			c0-9.095-8.581-10.453-17.161-12.335c-8.68-1.882-17.26-4.285-17.26-15.261c0-10.662,9.655-13.798,18.136-13.798
			c10.63,0,18.528,4.913,18.528,17.143h-3.705c-0.099-9.721-6.437-13.692-14.823-13.692c-6.824,0-14.429,2.717-14.429,10.348
			c0,8.571,8.58,9.931,16.672,11.812c9.947,1.986,17.747,4.495,17.747,15.784c0,11.603-10.824,14.844-19.598,14.844
			c-11.409,0-19.99-6.585-20.282-19.129H289.398z"/>
	</g>
	<g>
		<path fill="#FFFFFF" d="M362.903,83.834c0.62,1.154,1.419,2.098,2.397,2.831c0.978,0.735,2.103,1.276,3.375,1.624
			c1.272,0.352,2.591,0.526,3.961,0.526c0.979,0,2.006-0.122,3.081-0.369c1.077-0.242,2.056-0.628,2.937-1.153
			c0.88-0.524,1.613-1.221,2.2-2.097c0.588-0.874,0.881-1.974,0.881-3.303c0-2.238-1.386-3.914-4.157-5.033
			c-2.773-1.119-6.637-2.236-11.593-3.356c-2.021-0.489-3.996-1.065-5.917-1.73c-1.925-0.662-3.637-1.536-5.137-2.622
			c-1.501-1.083-2.706-2.445-3.619-4.089c-0.914-1.642-1.369-3.655-1.369-6.03c0-3.496,0.636-6.361,1.907-8.6
			c1.273-2.236,2.951-4.001,5.039-5.295c2.086-1.293,4.433-2.203,7.043-2.728c2.607-0.525,5.282-0.785,8.021-0.785
			c2.739,0,5.396,0.279,7.973,0.836c2.575,0.562,4.875,1.506,6.897,2.834c2.021,1.327,3.7,3.093,5.039,5.295
			c1.335,2.201,2.134,4.981,2.396,8.338h-13.208c-0.196-2.867-1.206-4.807-3.032-5.822c-1.827-1.013-3.979-1.521-6.457-1.521
			c-0.783,0-1.63,0.053-2.543,0.158c-0.915,0.104-1.746,0.333-2.496,0.681c-0.75,0.352-1.386,0.858-1.907,1.521
			c-0.522,0.665-0.783,1.558-0.783,2.673c0,1.331,0.455,2.414,1.37,3.253c0.914,0.836,2.103,1.52,3.57,2.044
			c1.468,0.524,3.146,0.996,5.039,1.415c1.89,0.42,3.815,0.875,5.771,1.365c2.021,0.489,3.995,1.083,5.92,1.781
			c1.922,0.7,3.635,1.626,5.136,2.78c1.498,1.151,2.705,2.585,3.619,4.299c0.912,1.714,1.37,3.829,1.37,6.344
			c0,3.566-0.669,6.556-2.006,8.966c-1.338,2.413-3.083,4.354-5.234,5.82c-2.152,1.469-4.614,2.502-7.386,3.094
			c-2.773,0.595-5.592,0.892-8.462,0.892c-2.935,0-5.806-0.316-8.608-0.944c-2.806-0.628-5.3-1.678-7.484-3.146
			c-2.185-1.469-3.979-3.405-5.381-5.819c-1.402-2.411-2.168-5.436-2.298-9.071h13.207
			C361.975,81.301,362.284,82.681,362.903,83.834z"/>
		<path fill="#FFFFFF" d="M417.636,22.432v28.21h0.294c1.761-3.145,4.011-5.436,6.749-6.869c2.739-1.432,5.412-2.148,8.021-2.148
			c3.718,0,6.766,0.543,9.147,1.625c2.38,1.084,4.255,2.586,5.625,4.509c1.37,1.923,2.331,4.264,2.886,7.026
			c0.552,2.763,0.831,5.821,0.831,9.176v33.347h-13.891v-30.62c0-4.475-0.652-7.812-1.956-10.015
			c-1.306-2.204-3.621-3.304-6.946-3.304c-3.783,0-6.522,1.205-8.217,3.619c-1.697,2.411-2.543,6.379-2.543,11.9v28.42h-13.891
			V22.432H417.636z"/>
		<path fill="#FFFFFF" d="M461.167,59.766c0.195-3.495,1.01-6.396,2.446-8.703c1.433-2.309,3.259-4.16,5.477-5.559
			c2.216-1.397,4.711-2.394,7.483-2.988c2.771-0.594,5.562-0.891,8.364-0.891c2.544,0,5.121,0.193,7.73,0.576
			c2.606,0.386,4.988,1.137,7.14,2.256c2.153,1.118,3.912,2.672,5.282,4.666c1.37,1.993,2.056,4.633,2.056,7.917v28.209
			c0,2.449,0.13,4.791,0.39,7.029c0.261,2.235,0.72,3.914,1.371,5.031h-14.087c-0.262-0.839-0.475-1.693-0.636-2.569
			c-0.165-0.873-0.277-1.764-0.343-2.675c-2.216,2.448-4.826,4.163-7.827,5.139c-3,0.979-6.064,1.469-9.195,1.469
			c-2.412,0-4.662-0.316-6.749-0.944c-2.088-0.628-3.914-1.605-5.48-2.935c-1.564-1.328-2.787-3.005-3.667-5.034
			c-0.881-2.027-1.321-4.439-1.321-7.235c0-3.077,0.504-5.611,1.517-7.603c1.011-1.992,2.314-3.583,3.913-4.773
			c1.597-1.187,3.423-2.079,5.478-2.673c2.055-0.595,4.125-1.064,6.213-1.416c2.085-0.349,4.14-0.63,6.163-0.84
			c2.021-0.208,3.815-0.522,5.377-0.942c1.566-0.42,2.805-1.031,3.719-1.835c0.912-0.805,1.337-1.975,1.273-3.512
			c0-1.61-0.246-2.885-0.734-3.828c-0.49-0.945-1.142-1.68-1.956-2.204c-0.816-0.525-1.762-0.874-2.835-1.048
			c-1.076-0.174-2.236-0.262-3.474-0.262c-2.739,0-4.891,0.63-6.457,1.888s-2.48,3.356-2.74,6.292H461.167z M493.253,70.778
			c-0.586,0.56-1.321,0.995-2.201,1.309c-0.882,0.316-1.827,0.578-2.839,0.789c-1.012,0.209-2.068,0.384-3.178,0.524
			c-1.111,0.14-2.218,0.312-3.328,0.523c-1.043,0.208-2.069,0.49-3.08,0.839c-1.012,0.35-1.892,0.822-2.642,1.415
			c-0.75,0.597-1.354,1.348-1.81,2.255c-0.456,0.91-0.684,2.062-0.684,3.461c0,1.329,0.228,2.448,0.684,3.354
			c0.457,0.911,1.077,1.628,1.86,2.152c0.781,0.523,1.694,0.889,2.738,1.102c1.043,0.207,2.119,0.313,3.228,0.313
			c2.742,0,4.859-0.488,6.359-1.469c1.499-0.979,2.607-2.15,3.326-3.513c0.719-1.365,1.156-2.742,1.32-4.143
			c0.161-1.397,0.246-2.517,0.246-3.357V70.778z"/>
		<path fill="#FFFFFF" d="M531.11,43.094v10.067h0.194c0.651-1.68,1.532-3.234,2.642-4.667c1.108-1.433,2.381-2.658,3.816-3.673
			c1.433-1.014,2.967-1.798,4.597-2.36c1.631-0.558,3.326-0.836,5.087-0.836c0.912,0,1.923,0.174,3.032,0.523v13.843
			c-0.653-0.14-1.435-0.263-2.347-0.368c-0.916-0.104-1.796-0.158-2.642-0.158c-2.543,0-4.697,0.455-6.458,1.365
			c-1.76,0.908-3.179,2.148-4.254,3.723c-1.075,1.573-1.844,3.408-2.299,5.505c-0.457,2.098-0.685,4.369-0.685,6.817v24.433h-13.892
			V43.094H531.11z"/>
		<path fill="#FFFFFF" d="M569.067,84.306c2.086,2.168,5.087,3.251,8.999,3.251c2.802,0,5.217-0.75,7.238-2.255
			c2.021-1.503,3.261-3.093,3.719-4.771h12.228c-1.957,6.502-4.956,11.152-9,13.947c-4.045,2.796-8.937,4.194-14.675,4.194
			c-3.978,0-7.565-0.68-10.76-2.045c-3.195-1.363-5.904-3.301-8.119-5.82c-2.219-2.518-3.93-5.522-5.136-9.018
			c-1.207-3.495-1.81-7.341-1.81-11.535c0-4.054,0.618-7.83,1.857-11.325c1.239-3.496,3-6.52,5.283-9.072
			c2.283-2.551,5.004-4.562,8.168-6.031c3.163-1.469,6.668-2.201,10.516-2.201c4.306,0,8.055,0.891,11.25,2.673
			c3.195,1.782,5.822,4.177,7.876,7.183c2.054,3.006,3.536,6.434,4.45,10.276c0.915,3.846,1.239,7.865,0.979,12.06h-36.488
			C565.838,78.642,566.979,82.139,569.067,84.306z M584.767,55.782c-1.663-1.957-4.188-2.938-7.581-2.938
			c-2.219,0-4.06,0.403-5.526,1.208c-1.468,0.803-2.642,1.799-3.521,2.987c-0.88,1.19-1.502,2.449-1.858,3.777
			c-0.361,1.327-0.572,2.515-0.637,3.564h22.599C587.587,60.606,586.43,57.738,584.767,55.782z"/>
		<path fill="#FFFFFF" d="M639.692,62.283v12.794h-29.444V62.283H639.692z"/>
		<path fill="#FFFFFF" d="M677.943,43.094v9.96h-10.175V79.9c0,2.517,0.394,4.194,1.176,5.035c0.781,0.838,2.346,1.258,4.694,1.258
			c0.782,0,1.532-0.034,2.252-0.105c0.716-0.068,1.401-0.172,2.053-0.314v11.535c-1.174,0.211-2.478,0.35-3.914,0.419
			c-1.436,0.07-2.836,0.105-4.206,0.105c-2.151,0-4.19-0.157-6.114-0.474c-1.924-0.312-3.619-0.925-5.086-1.833
			c-1.468-0.907-2.626-2.2-3.475-3.879c-0.846-1.679-1.27-3.882-1.27-6.607V53.054h-8.414v-9.96h8.414V26.836h13.89v16.257H677.943z
			"/>
		<path fill="#FFFFFF" d="M684.889,58.457c1.237-3.531,2.999-6.54,5.283-9.02c2.281-2.48,5.021-4.405,8.217-5.766
			c3.195-1.365,6.783-2.046,10.76-2.046c3.979,0,7.584,0.681,10.81,2.046c3.23,1.361,5.985,3.286,8.268,5.766
			s4.044,5.489,5.282,9.02c1.237,3.529,1.86,7.461,1.86,11.797c0,4.334-0.623,8.249-1.86,11.743c-1.238,3.498-3,6.486-5.282,8.968
			c-2.282,2.482-5.037,4.387-8.268,5.715c-3.226,1.327-6.83,1.992-10.81,1.992c-3.977,0-7.564-0.665-10.76-1.992
			c-3.196-1.328-5.936-3.232-8.217-5.715c-2.284-2.481-4.046-5.47-5.283-8.968c-1.239-3.494-1.859-7.409-1.859-11.743
			C683.029,65.918,683.649,61.986,684.889,58.457z M697.509,76.598c0.39,2.062,1.06,3.916,2.004,5.558
			c0.947,1.644,2.203,2.956,3.768,3.933c1.564,0.981,3.521,1.469,5.868,1.469c2.35,0,4.321-0.487,5.921-1.469
			c1.597-0.977,2.867-2.289,3.814-3.933c0.945-1.642,1.613-3.495,2.005-5.558s0.588-4.177,0.588-6.344
			c0-2.165-0.196-4.301-0.588-6.397c-0.392-2.099-1.06-3.949-2.005-5.559c-0.947-1.608-2.218-2.918-3.814-3.932
			c-1.6-1.011-3.571-1.521-5.921-1.521c-2.347,0-4.304,0.51-5.868,1.521c-1.564,1.014-2.82,2.324-3.768,3.932
			c-0.944,1.61-1.614,3.46-2.004,5.559c-0.391,2.097-0.587,4.232-0.587,6.397C696.922,72.421,697.118,74.535,697.509,76.598z"/>
		<path fill="#FFFFFF" d="M773.715,62.283v12.794h-29.447V62.283H773.715z"/>
		<path fill="#FFFFFF" d="M795.87,83.834c0.619,1.154,1.419,2.098,2.396,2.831c0.979,0.735,2.104,1.276,3.376,1.624
			c1.271,0.352,2.592,0.526,3.962,0.526c0.978,0,2.005-0.122,3.079-0.369c1.079-0.242,2.057-0.628,2.936-1.153
			c0.881-0.524,1.615-1.221,2.201-2.097c0.588-0.874,0.881-1.974,0.881-3.303c0-2.238-1.387-3.914-4.157-5.033
			c-2.774-1.119-6.637-2.236-11.593-3.356c-2.021-0.489-3.995-1.065-5.918-1.73c-1.924-0.662-3.637-1.536-5.135-2.622
			c-1.502-1.083-2.709-2.445-3.621-4.089c-0.915-1.642-1.371-3.655-1.371-6.03c0-3.496,0.639-6.361,1.908-8.6
			c1.273-2.236,2.95-4.001,5.041-5.295c2.084-1.293,4.433-2.203,7.041-2.728c2.607-0.525,5.284-0.785,8.022-0.785
			s5.396,0.279,7.975,0.836c2.574,0.562,4.872,1.506,6.895,2.834c2.021,1.327,3.7,3.093,5.038,5.295
			c1.336,2.201,2.137,4.981,2.397,8.338h-13.207c-0.196-2.867-1.209-4.807-3.031-5.822c-1.826-1.013-3.979-1.521-6.459-1.521
			c-0.781,0-1.629,0.053-2.541,0.158c-0.916,0.104-1.746,0.333-2.497,0.681c-0.751,0.352-1.385,0.858-1.906,1.521
			c-0.522,0.665-0.783,1.558-0.783,2.673c0,1.331,0.457,2.414,1.371,3.253c0.912,0.836,2.104,1.52,3.57,2.044
			c1.467,0.524,3.145,0.996,5.037,1.415c1.89,0.42,3.816,0.875,5.771,1.365c2.021,0.489,3.995,1.083,5.918,1.781
			c1.925,0.7,3.637,1.626,5.137,2.78c1.499,1.151,2.705,2.585,3.62,4.299c0.912,1.714,1.369,3.829,1.369,6.344
			c0,3.566-0.671,6.556-2.006,8.966c-1.338,2.413-3.081,4.354-5.233,5.82c-2.152,1.469-4.614,2.502-7.385,3.094
			c-2.774,0.595-5.593,0.892-8.464,0.892c-2.933,0-5.804-0.316-8.608-0.944c-2.804-0.628-5.298-1.678-7.481-3.146
			c-2.188-1.469-3.979-3.405-5.381-5.819c-1.403-2.411-2.17-5.436-2.3-9.071h13.207C794.941,81.301,795.25,82.681,795.87,83.834z"/>
		<path fill="#FFFFFF" d="M836.125,59.766c0.195-3.495,1.01-6.396,2.445-8.703c1.433-2.309,3.26-4.16,5.479-5.559
			c2.216-1.397,4.711-2.394,7.483-2.988c2.771-0.594,5.558-0.891,8.362-0.891c2.546,0,5.12,0.193,7.729,0.576
			c2.607,0.386,4.99,1.137,7.143,2.256c2.151,1.118,3.912,2.672,5.281,4.666c1.37,1.993,2.055,4.633,2.055,7.917v28.209
			c0,2.449,0.132,4.791,0.391,7.029c0.261,2.235,0.719,3.914,1.371,5.031h-14.086c-0.264-0.839-0.477-1.693-0.638-2.569
			c-0.163-0.873-0.277-1.764-0.343-2.675c-2.215,2.448-4.827,4.163-7.825,5.139c-2.999,0.979-6.065,1.469-9.195,1.469
			c-2.415,0-4.662-0.316-6.75-0.944s-3.912-1.605-5.478-2.935c-1.566-1.328-2.788-3.005-3.669-5.034
			c-0.882-2.027-1.321-4.439-1.321-7.235c0-3.077,0.505-5.611,1.518-7.603c1.01-1.992,2.313-3.583,3.913-4.773
			c1.596-1.187,3.425-2.079,5.477-2.673c2.055-0.595,4.124-1.064,6.214-1.416c2.085-0.349,4.139-0.63,6.161-0.84
			c2.021-0.208,3.815-0.522,5.38-0.942c1.566-0.42,2.805-1.031,3.719-1.835c0.912-0.805,1.336-1.975,1.272-3.512
			c0-1.61-0.245-2.885-0.734-3.828c-0.489-0.945-1.142-1.68-1.956-2.204c-0.816-0.525-1.762-0.874-2.837-1.048
			c-1.077-0.174-2.236-0.262-3.474-0.262c-2.739,0-4.892,0.63-6.456,1.888c-1.566,1.257-2.479,3.356-2.74,6.292H836.125z
			 M868.212,70.778c-0.589,0.56-1.321,0.995-2.202,1.309c-0.881,0.316-1.826,0.578-2.837,0.789
			c-1.012,0.209-2.071,0.384-3.179,0.524c-1.11,0.14-2.22,0.312-3.326,0.523c-1.045,0.208-2.071,0.49-3.082,0.839
			c-1.012,0.35-1.892,0.822-2.642,1.415c-0.75,0.597-1.354,1.348-1.811,2.255c-0.456,0.91-0.683,2.062-0.683,3.461
			c0,1.329,0.227,2.448,0.683,3.354c0.456,0.911,1.079,1.628,1.859,2.152c0.783,0.523,1.695,0.889,2.741,1.102
			c1.042,0.207,2.117,0.313,3.226,0.313c2.741,0,4.858-0.488,6.36-1.469c1.499-0.979,2.607-2.15,3.325-3.513
			c0.718-1.365,1.157-2.742,1.321-4.143c0.162-1.397,0.245-2.517,0.245-3.357V70.778z"/>
		<path fill="#FFFFFF" d="M905.385,97.309l-17.315-54.215h14.575l10.663,37.017h0.194l10.664-37.017h13.794l-17.119,54.215H905.385z
			"/>
		<path fill="#FFFFFF" d="M958.599,84.306c2.087,2.168,5.086,3.251,9.001,3.251c2.803,0,5.216-0.75,7.238-2.255
			c2.02-1.503,3.26-3.093,3.718-4.771h12.228c-1.956,6.502-4.957,11.152-9.001,13.947c-4.044,2.796-8.935,4.194-14.675,4.194
			c-3.976,0-7.563-0.68-10.76-2.045c-3.194-1.363-5.902-3.301-8.117-5.82c-2.219-2.518-3.931-5.522-5.138-9.018
			s-1.81-7.341-1.81-11.535c0-4.054,0.62-7.83,1.857-11.325c1.239-3.496,3.002-6.52,5.283-9.072
			c2.283-2.551,5.006-4.562,8.169-6.031c3.162-1.469,6.667-2.201,10.515-2.201c4.306,0,8.055,0.891,11.253,2.673
			c3.194,1.782,5.82,4.177,7.875,7.183c2.055,3.006,3.537,6.434,4.451,10.276c0.912,3.846,1.237,7.865,0.979,12.06h-36.49
			C955.369,78.642,956.511,82.139,958.599,84.306z M974.299,55.782c-1.661-1.957-4.19-2.938-7.579-2.938
			c-2.22,0-4.062,0.403-5.53,1.208c-1.467,0.803-2.64,1.799-3.521,2.987c-0.88,1.19-1.502,2.449-1.858,3.777
			c-0.359,1.327-0.57,2.515-0.636,3.564h22.597C977.121,60.606,975.963,57.738,974.299,55.782z"/>
	</g>
</g>
</svg>
