<?xml version="1.0" encoding="utf-8"?>
<!-- Generator: Adobe Illustrator 15.1.0, SVG Export Plug-In . SVG Version: 6.00 Build 0)  -->
<!DOCTYPE svg PUBLIC "-//W3C//DTD SVG 1.1//EN" "http://www.w3.org/Graphics/SVG/1.1/DTD/svg11.dtd">
<svg version="1.1" id="Layer_1" xmlns="http://www.w3.org/2000/svg" xmlns:xlink="http://www.w3.org/1999/xlink" x="0px" y="0px"
	 width="500px" height="500px" viewBox="0 0 500 500" enable-background="new 0 0 500 500" xml:space="preserve">
<g>
	<defs>
		<path id="SVGID_1_" d="M250,0C111.929,0,0,111.929,0,250s111.929,250,250,250s250-111.929,250-250S388.071,0,250,0z M250,404.5
			c-85.328,0-154.5-69.172-154.5-154.5S164.672,95.5,250,95.5S404.5,164.672,404.5,250S335.328,404.5,250,404.5z"/>
	</defs>
	<clipPath id="SVGID_2_">
		<use xlink:href="#SVGID_1_"  overflow="visible"/>
	</clipPath>
	<g id="XMLID_1_" clip-path="url(#SVGID_2_)">
		<g>
			<path fill="#E57E25" d="M500,250H250l216.51-125l0.03-0.02C487.82,161.75,500,204.45,500,250z"/>
			<path fill="#D25627" d="M250,250h250c0,45.55-12.18,88.25-33.46,125.02l-0.03-0.02L250,250z"/>
			<path fill="#C03A2B" d="M466.54,124.98l-0.03,0.02L250,250L375,33.49l0.02-0.03C412.96,55.41,444.59,87.04,466.54,124.98z"/>
			<path fill="#F0C419" d="M466.51,375l0.03,0.02c-21.95,37.94-53.58,69.57-91.521,91.521l-0.02-0.03L250,250L466.51,375z"/>
			<path fill="#E64C3C" d="M375.02,33.46L375,33.49L250,250V0C295.55,0,338.25,12.18,375.02,33.46z"/>
			<path fill="#F29C1F" d="M375,466.51l0.02,0.03C338.25,487.82,295.55,500,250,500V250L375,466.51z"/>
			<path fill="#4FBA6F" d="M250,250v250c-45.55,0-88.25-12.18-125.02-33.46l0.02-0.03L250,250z"/>
			<path fill="#894B9D" d="M250,0v250L125,33.49l-0.02-0.03C161.75,12.18,204.45,0,250,0z"/>
			<path fill="#955BA5" d="M125,33.49L250,250L33.49,125l-0.03-0.02c21.95-37.94,53.58-69.57,91.52-91.52L125,33.49z"/>
			<path fill="#24AE5F" d="M250,250L125,466.51l-0.02,0.03c-37.94-21.95-69.57-53.58-91.52-91.521l0.03-0.02L250,250z"/>
			<path fill="#3B97D3" d="M250,250L33.49,375l-0.03,0.02C12.18,338.25,0,295.55,0,250H250z"/>
			<path fill="#2980BA" d="M250,250H0c0-45.55,12.18-88.25,33.46-125.02l0.03,0.02L250,250z"/>
		</g>
	</g>
</g>
<text transform="matrix(0.9728 0.2315 -0.2315 0.9728 274.25 58.0513)" fill="#FFFFFF" font-family="'Montserrat-Regular'" font-size="27.3206">15%</text>
<text transform="matrix(0.7326 0.6806 -0.6806 0.7326 359.5576 92.5327)" fill="#FFFFFF" font-family="'Montserrat-Regular'" font-size="27.3206">20%</text>
<text transform="matrix(0.298 0.9546 -0.9546 0.298 425.5342 178.5991)" fill="#FFFFFF" font-family="'Montserrat-Regular'" font-size="27.3206">10$</text>
<text transform="matrix(-0.3047 0.9524 -0.9524 -0.3047 443.5459 273.9453)" fill="#FFFFFF" font-family="'Montserrat-Regular'" font-size="27.3206">15%</text>
<text transform="matrix(-0.726 0.6877 -0.6877 -0.726 404.0049 365.6738)" fill="#FFFFFF" font-family="'Montserrat-Regular'" font-size="27.3206">10%</text>
<text transform="matrix(-0.9457 0.325 -0.325 -0.9457 330.3672 424.7393)" fill="#FFFFFF" font-family="'Montserrat-Regular'" font-size="27.3206">20%</text>
<text transform="matrix(0.9559 -0.2937 0.2937 0.9559 171.8281 71.1836)" fill="#FFFFFF" font-family="'Montserrat-Regular'" font-size="27.3206">10%</text>
<text transform="matrix(0.7141 -0.7001 0.7001 0.7141 94.7544 134.6895)" fill="#FFFFFF" font-family="'Montserrat-Regular'" font-size="27.3206">30%</text>
<text transform="matrix(0.2114 -0.9774 0.9774 0.2114 55.8848 228.1353)" fill="#FFFFFF" font-family="'Montserrat-Regular'" font-size="27.3206">10%</text>
<text transform="matrix(-0.2754 -0.9613 0.9613 -0.2754 70.3501 323.0117)" fill="#FFFFFF" font-family="'Montserrat-Regular'" font-size="27.3206">$30</text>
<text transform="matrix(-0.709 -0.7052 0.7052 -0.709 129.0522 406.5537)" fill="#FFFFFF" font-family="'Montserrat-Regular'" font-size="27.3206">15%</text>
<text transform="matrix(-0.9606 -0.2781 0.2781 -0.9606 227.5566 445.4404)" fill="#FFFFFF" font-family="'Montserrat-Regular'" font-size="27.3206">10%</text>
</svg>
